<?xml version="1.0" encoding="UTF-8"?>
<svg version="1.1" xmlns="http://www.w3.org/2000/svg" width="500" height="500">
<path d="M0 0 C0.99 -0.33 1.98 -0.66 3 -1 C9.22187421 -1.5079081 14.74503901 -1.75354356 20 2 C24.72480636 6.72480636 26.89508446 10.87743653 27.06640625 17.609375 C26.76878793 24.13894048 25.44193999 29.09655975 21 34 C16.57715726 37.97268063 12.22930414 38.42858313 6.4296875 38.3359375 C3.71182032 37.96015522 1.49925659 37.11176894 -1 36 C-1.03738281 36.84304688 -1.07476562 37.68609375 -1.11328125 38.5546875 C-1.17902344 39.65039062 -1.24476563 40.74609375 -1.3125 41.875 C-1.37050781 42.96554687 -1.42851562 44.05609375 -1.48828125 45.1796875 C-1.65714844 46.11039062 -1.82601562 47.04109375 -2 48 C-5 50 -5 50 -7.625 49.75 C-8.40875 49.5025 -9.1925 49.255 -10 49 C-11.17022189 46.65955621 -11.12676545 45.28094286 -11.12939453 42.67382812 C-11.13254669 41.77950073 -11.13569885 40.88517334 -11.13894653 39.96374512 C-11.1369223 38.99602173 -11.13489807 38.02829834 -11.1328125 37.03125 C-11.13376923 36.04000122 -11.13472595 35.04875244 -11.13571167 34.02746582 C-11.13639293 31.92927995 -11.13454243 29.83109199 -11.13037109 27.73291016 C-11.12502209 24.5132984 -11.13031794 21.29382615 -11.13671875 18.07421875 C-11.13605796 16.03906219 -11.13477678 14.00390572 -11.1328125 11.96875 C-11.13483673 11.00102661 -11.13686096 10.03330322 -11.13894653 9.03625488 C-11.13421829 7.69476379 -11.13421829 7.69476379 -11.12939453 6.32617188 C-11.12859894 5.53722534 -11.12780334 4.74827881 -11.12698364 3.9354248 C-11 2 -11 2 -10 0 C-6.29896173 -1.23367942 -3.82466559 -0.5463808 0 0 Z M-2 12 C-2.79959862 17.69819225 -3.12748203 22.48680043 0.375 27.1875 C4.2243189 29.84536305 6.2853256 30.46222298 11 30 C13.69990662 28.20006226 15.5418865 26.916227 17 24 C17.51124099 18.79539913 17.86132441 14.43554069 15.125 9.875 C12.57897575 7.62850802 11.57942984 7.05150487 8.1875 6.75 C3.674986 7.10392267 1.15105731 8.84894269 -2 12 Z " fill="#353540" transform="translate(235,229)"/>
<path d="M0 0 C0.763125 0.20625 1.52625 0.4125 2.3125 0.625 C3.4375 6.375 3.4375 6.375 2.3125 8.625 C1.3225 8.625 0.3325 8.625 -0.6875 8.625 C-0.6875 9.285 -0.6875 9.945 -0.6875 10.625 C1.15975052 11.31659401 1.15975052 11.31659401 3.3125 11.625 C4.3025 10.965 5.2925 10.305 6.3125 9.625 C7.3025 9.625 8.2925 9.625 9.3125 9.625 C9.291875 8.51125 9.27125 7.3975 9.25 6.25 C9.3125 2.625 9.3125 2.625 10.3125 0.625 C12.6875 -0.125 12.6875 -0.125 15.3125 -0.375 C16.3025 0.285 17.2925 0.945 18.3125 1.625 C18.72093923 4.33703652 18.44586867 6.8687142 18.3125 9.625 C21.2825 9.955 24.2525 10.285 27.3125 10.625 C27.9375 13 27.9375 13 28.3125 15.625 C26.3125 17.625 26.3125 17.625 24.3671875 17.8203125 C22.34895833 17.75520833 20.33072917 17.69010417 18.3125 17.625 C18.45104088 20.91701643 18.59957024 24.20850709 18.75 27.5 C18.78931641 28.43714844 18.82863281 29.37429687 18.86914062 30.33984375 C18.91103516 31.23574219 18.95292969 32.13164062 18.99609375 33.0546875 C19.03275146 33.88210449 19.06940918 34.70952148 19.10717773 35.56201172 C19.19488327 37.68679429 19.19488327 37.68679429 20.3125 39.625 C21.59125 39.58375 22.87 39.5425 24.1875 39.5 C26.3671875 39.4296875 26.3671875 39.4296875 28.3125 39.625 C28.9725 40.285 29.6325 40.945 30.3125 41.625 C30.125 44.125 30.125 44.125 29.3125 46.625 C25.25883625 49.3274425 22.06718449 49.15236817 17.3125 48.625 C13.95545944 47.31137543 12.6962213 46.19457186 10.69140625 43.21875 C8.7575332 38.17862759 8.9905289 33.5943642 9.125 28.25 C9.13853516 27.22777344 9.15207031 26.20554688 9.16601562 25.15234375 C9.20119783 22.64267951 9.25042461 20.1341191 9.3125 17.625 C7.6625 17.625 6.0125 17.625 4.3125 17.625 C4.29268066 18.46272949 4.27286133 19.30045898 4.25244141 20.16357422 C4.17439388 23.26865834 4.08770365 26.37334539 3.99511719 29.47802734 C3.93795964 31.48386971 3.89081404 33.48998918 3.84375 35.49609375 C3.78574219 37.38134766 3.78574219 37.38134766 3.7265625 39.3046875 C3.6951416 40.46726074 3.6637207 41.62983398 3.63134766 42.82763672 C3.3125 45.625 3.3125 45.625 1.3125 47.625 C-1.75 47.8125 -1.75 47.8125 -4.6875 47.625 C-5.6875 46.625 -5.6875 46.625 -5.80102539 43.29858398 C-5.80086629 41.82274444 -5.79517314 40.34689931 -5.78515625 38.87109375 C-5.78303383 37.70792381 -5.78303383 37.70792381 -5.78086853 36.52125549 C-5.77525345 34.03496506 -5.76269846 31.5487634 -5.75 29.0625 C-5.74498694 27.38086067 -5.7404237 25.69921994 -5.73632812 24.01757812 C-5.72527913 19.88668434 -5.70800445 15.75585724 -5.6875 11.625 C-4.3675 11.295 -3.0475 10.965 -1.6875 10.625 C-1.6875 9.965 -1.6875 9.305 -1.6875 8.625 C-3.0075 8.295 -4.3275 7.965 -5.6875 7.625 C-5.875 4.75 -5.875 4.75 -5.6875 1.625 C-2.6875 -0.375 -2.6875 -0.375 0 0 Z " fill="#35353F" transform="translate(271.6875,218.375)"/>
<path d="M0 0 C1.40378906 -0.02126953 1.40378906 -0.02126953 2.8359375 -0.04296875 C5.78692561 0.20088041 7.89769854 1.09565803 10.625 2.1875 C12.30245682 1.54846883 13.97061387 0.88408363 15.625 0.1875 C18.625 2.1875 18.625 2.1875 19.625 5.1875 C19.8291473 9.31813754 19.81080259 13.44891213 19.81030273 17.58422852 C19.81248849 19.61430854 19.83065597 21.64384423 19.84960938 23.67382812 C19.85154297 24.95580078 19.85347656 26.23777344 19.85546875 27.55859375 C19.85957764 28.73349365 19.86368652 29.90839355 19.86791992 31.11889648 C19.63525249 34.05798888 19.163101 35.71289857 17.625 38.1875 C14.28247276 38.26177838 11.8214086 38.25296953 8.625 37.1875 C7.28608846 37.84289157 5.95344972 38.51115425 4.625 39.1875 C-1.78704314 40.13337593 -7.39910178 39.75222416 -12.71484375 35.85546875 C-17.25130191 31.29766255 -18.59580771 25.91555132 -18.875 19.625 C-18.62348428 13.63054206 -17.05656896 8.9950957 -12.87890625 4.62109375 C-8.68413485 0.94936118 -5.44639335 0.03730406 0 0 Z M-7.375 12.1875 C-9.77972822 16.01320399 -9.66828943 19.67155658 -9.03515625 24.0234375 C-7.80822133 28.04546083 -6.0676766 29.17331276 -2.375 31.1875 C1.46116733 31.52620191 4.40347698 30.79609569 7.828125 29.08984375 C10.48874194 26.27306017 10.28525022 23.42659749 10.25 19.75 C10.28351563 18.43128906 10.31703125 17.11257812 10.3515625 15.75390625 C9.96073216 11.96975367 9.96073216 11.96975367 6.77734375 9.74609375 C0.85202499 6.81647518 -2.76511721 7.44956491 -7.375 12.1875 Z " fill="#353540" transform="translate(198.375,227.8125)"/>
<path d="M0 0 C1.672233 -0.65257873 3.33927151 -1.31867549 5 -2 C7.15234375 -1.0625 7.15234375 -1.0625 9 0 C9.02465098 4.96622349 9.04283649 9.93241166 9.05493164 14.89868164 C9.0599719 16.58944316 9.06680405 18.28020029 9.07543945 19.97094727 C9.08751857 22.39600707 9.09323123 24.82100944 9.09765625 27.24609375 C9.10281754 28.00651474 9.10797882 28.76693573 9.11329651 29.55039978 C9.11349238 31.3673257 9.06197277 33.18413127 9 35 C8 36 8 36 4.4375 36.0625 C3.303125 36.041875 2.16875 36.02125 1 36 C1 35.34 1 34.68 1 34 C0.05125 34.495 -0.8975 34.99 -1.875 35.5 C-7.08309616 37.7034253 -12.65121416 38.1268728 -18.0546875 36.30859375 C-23.35830023 33.58850053 -26.15251868 29.54244395 -28 24 C-28.63181705 16.42855307 -28.96926386 9.16978938 -24 3 C-16.48018986 -2.98515501 -8.74241994 -3.49696798 0 0 Z M-18 11 C-19.5918931 15.7756793 -19.53061766 19.59386321 -17.75 24.3125 C-15.58777445 27.69023427 -15.58777445 27.69023427 -12 29 C-7.95602695 29.05836662 -5.08739835 28.80789103 -1.78125 26.3515625 C0.55513154 23.26712898 0.53520532 21.33738025 0.5 17.5 C0.5103125 16.3759375 0.520625 15.251875 0.53125 14.09375 C-0.09995311 10.41792013 -1.11678024 9.28075593 -4 7 C-10.07825589 3.96087205 -13.73581037 6.73581037 -18 11 Z " fill="#353540" transform="translate(330,230)"/>
<path d="M0 0 C2.57583291 1.43042078 4.66578193 3.08375068 6.74609375 5.1640625 C6.99609375 7.6640625 6.99609375 7.6640625 6.74609375 10.1640625 C6.08609375 10.8240625 5.42609375 11.4840625 4.74609375 12.1640625 C1.8118191 11.93240924 0.18083364 11.53883827 -2.06640625 9.6015625 C-5.33527413 7.45344932 -8.45232362 7.43809292 -12.25390625 8.1640625 C-14.68510248 10.03421344 -15.89459798 11.44544595 -17.25390625 14.1640625 C-17.45148856 16.23970926 -17.45148856 16.23970926 -17.44140625 18.5390625 C-17.46267578 19.69535156 -17.46267578 19.69535156 -17.484375 20.875 C-17.2219397 23.48156077 -16.71877352 24.99217727 -15.25390625 27.1640625 C-11.56432142 29.68892669 -8.61716786 29.22317065 -4.36328125 28.66015625 C-1.79174066 28.055368 -0.30798577 26.77798212 1.74609375 25.1640625 C4.49609375 25.4765625 4.49609375 25.4765625 6.74609375 26.1640625 C7.24109375 28.6390625 7.24109375 28.6390625 7.74609375 31.1640625 C6.64690559 32.14881464 5.54153355 33.12666723 4.43359375 34.1015625 C3.81871094 34.64683594 3.20382813 35.19210937 2.5703125 35.75390625 C-1.9650771 39.25984982 -7.81285266 38.58319128 -13.25390625 38.1640625 C-19.10069058 36.78387364 -23.13404466 33.23786181 -26.50390625 28.3515625 C-28.79193744 21.6781382 -28.49594453 15.76766159 -26.25390625 9.1640625 C-23.95572767 4.47931386 -21.35877004 1.94786172 -16.6640625 -0.140625 C-11.26608309 -1.69790269 -5.31433264 -1.97100032 0 0 Z " fill="#363540" transform="translate(171.25390625,228.8359375)"/>
<path d="M0 0 C1.3914624 0.00616333 1.3914624 0.00616333 2.81103516 0.01245117 C3.82423828 0.01438477 4.83744141 0.01631836 5.88134766 0.01831055 C6.94353516 0.03055664 8.00572266 0.04280273 9.10009766 0.05541992 C10.15455078 0.05606445 11.20900391 0.05670898 12.29541016 0.05737305 C20.85765028 0.10626909 20.85765028 0.10626909 24.72509766 1.24291992 C24.47718379 5.53623623 24.19791414 9.82693978 23.91259766 14.11791992 C23.84234375 15.34124023 23.77208984 16.56456055 23.69970703 17.82495117 C23.61914062 18.99155273 23.53857422 20.1581543 23.45556641 21.36010742 C23.38748779 22.4388916 23.31940918 23.51767578 23.24926758 24.62915039 C22.72509766 27.24291992 22.72509766 27.24291992 19.72509766 29.24291992 C16.53759766 28.86791992 16.53759766 28.86791992 13.72509766 28.24291992 C12.49329517 22.08390749 12.99478857 16.45616491 13.72509766 10.24291992 C12.67708984 10.26612305 11.62908203 10.28932617 10.54931641 10.31323242 C9.17041728 10.33199295 7.79151045 10.35019285 6.41259766 10.36791992 C5.3771582 10.39305664 5.3771582 10.39305664 4.32080078 10.41870117 C0.5537437 10.45509786 -1.05921939 10.38670856 -4.27490234 8.24291992 C-4.58740234 5.24291992 -4.58740234 5.24291992 -4.27490234 2.24291992 C-2.27490234 0.24291992 -2.27490234 0.24291992 0 0 Z " fill="#24C597" transform="translate(361.27490234375,219.757080078125)"/>
<path d="M0 0 C1.65 0 3.3 0 5 0 C5 0.99 5 1.98 5 3 C5.99 3 6.98 3 8 3 C8.33 3.66 8.66 4.32 9 5 C9.99 4.34 10.98 3.68 12 3 C15.68380428 2.73344397 19.30136581 2.91297331 23 3 C23 7.62 23 12.24 23 17 C12.82142857 18.33928571 12.82142857 18.33928571 9 16 C8.67 16.33 8.34 16.66 8 17 C5.0625 17.25 5.0625 17.25 2 17 C1.34 16.01 0.68 15.02 0 14 C-0.33 14.99 -0.66 15.98 -1 17 C-2.65 17 -4.3 17 -6 17 C-6.33 14.36 -6.66 11.72 -7 9 C-7.99 8.67 -8.98 8.34 -10 8 C-10 10.97 -10 13.94 -10 17 C-11.98 17 -13.96 17 -16 17 C-16 12.71 -16 8.42 -16 4 C-11.73417857 3.14683571 -8.30701706 2.75620658 -4 3 C-3.34 3.66 -2.68 4.32 -2 5 C-1.34 3.35 -0.68 1.7 0 0 Z M5 8 C5 9.65 5 11.3 5 13 C5.99 13 6.98 13 8 13 C8 11.35 8 9.7 8 8 C7.01 8 6.02 8 5 8 Z M14 8 C13.67 9.32 13.34 10.64 13 12 C14.32 12.33 15.64 12.66 17 13 C17.33 11.68 17.66 10.36 18 9 C16.68 8.67 15.36 8.34 14 8 Z " fill="#34343D" transform="translate(230,208)"/>
<path d="M0 0 C1.07878418 0.01047363 2.15756836 0.02094727 3.26904297 0.03173828 C5.01894531 0.04140625 5.01894531 0.04140625 6.80419922 0.05126953 C8.02751953 0.06802734 9.25083984 0.08478516 10.51123047 0.10205078 C11.74228516 0.11107422 12.97333984 0.12009766 14.24169922 0.12939453 C17.29006862 0.1530253 20.33805429 0.18597024 23.38623047 0.22705078 C24.41113625 3.51147367 24.38304472 6.19880671 24.08154297 9.61376953 C23.99259766 10.6340625 23.90365234 11.65435547 23.81201172 12.70556641 C23.71275391 13.76453125 23.61349609 14.82349609 23.51123047 15.91455078 C23.41970703 16.98511719 23.32818359 18.05568359 23.23388672 19.15869141 C22.51936418 27.09391707 22.51936418 27.09391707 21.38623047 28.22705078 C19.05325614 28.26798016 16.71917822 28.26946801 14.38623047 28.22705078 C12.16690222 24.706737 12.28256438 22.18348691 12.69873047 18.10205078 C12.79798828 17.04759766 12.89724609 15.99314453 12.99951172 14.90673828 C13.38623047 12.22705078 13.38623047 12.22705078 14.38623047 10.22705078 C13.43361328 10.26185547 12.48099609 10.29666016 11.49951172 10.33251953 C10.24525391 10.35958984 8.99099609 10.38666016 7.69873047 10.41455078 C6.45736328 10.44935547 5.21599609 10.48416016 3.93701172 10.52001953 C0.17223292 10.20939422 -1.67888336 9.56388467 -4.61376953 7.22705078 C-5.05126953 4.66455078 -5.05126953 4.66455078 -4.61376953 2.22705078 C-2.61376953 0.22705078 -2.61376953 0.22705078 0 0 Z " fill="#23C596" transform="translate(375.61376953125,206.77294921875)"/>
<path d="M0 0 C1.8125 0.75 1.8125 0.75 2.8125 2.75 C2.91160002 4.12814963 2.95077322 5.51088772 2.95776367 6.89257812 C2.96733345 8.17400696 2.96733345 8.17400696 2.97709656 9.48132324 C2.97820938 10.40529907 2.9793222 11.3292749 2.98046875 12.28125 C2.98379715 13.22810669 2.98712555 14.17496338 2.99055481 15.1505127 C2.99562246 17.15453606 2.99796319 19.15856789 2.99780273 21.16259766 C2.99999106 24.23744503 3.01815354 27.31193481 3.03710938 30.38671875 C3.04004289 32.33072793 3.04202797 34.27473883 3.04296875 36.21875 C3.05015427 37.14272583 3.05733978 38.06670166 3.06474304 39.01867676 C3.06166641 39.87296265 3.05858978 40.72724854 3.05541992 41.60742188 C3.05684494 42.36083862 3.05826996 43.11425537 3.05973816 43.89050293 C2.8125 45.75 2.8125 45.75 0.8125 47.75 C-2.25 47.9375 -2.25 47.9375 -5.1875 47.75 C-6.1875 46.75 -6.1875 46.75 -6.30775452 44.92137146 C-6.30553391 44.12417191 -6.30331329 43.32697235 -6.30102539 42.50561523 C-6.30094986 41.60475693 -6.30087433 40.70389862 -6.30079651 39.77574158 C-6.29563522 38.79658279 -6.29047394 37.81742401 -6.28515625 36.80859375 C-6.2837413 35.81118668 -6.28232635 34.8137796 -6.28086853 33.78614807 C-6.27525114 30.58656876 -6.26269571 27.38705831 -6.25 24.1875 C-6.24498724 22.02408955 -6.24042395 19.86067801 -6.23632812 17.69726562 C-6.22527607 12.38148675 -6.20852104 7.06574829 -6.1875 1.75 C-2.4609375 -0.28125 -2.4609375 -0.28125 0 0 Z " fill="#363640" transform="translate(351.1875,218.25)"/>
<path d="M0 0 C1.588125 -0.020625 3.17625 -0.04125 4.8125 -0.0625 C5.70582031 -0.07410156 6.59914062 -0.08570313 7.51953125 -0.09765625 C10 0 10 0 13 1 C15.3406065 0.72230092 17.67624308 0.39460023 20 0 C20.66 1.32 21.32 2.64 22 4 C22.66 4 23.32 4 24 4 C24.33 3.01 24.66 2.02 25 1 C27.84083641 -0.42041821 29.85477278 -0.31452272 33 0 C35.375 1.5625 35.375 1.5625 37 4 C37.42460581 7.45750445 37.70099685 9.83167192 35.875 12.875 C33.20078043 14.47953174 31.11032079 14.87304813 28 15 C25.625 13.5625 25.625 13.5625 24 12 C23.67 12.66 23.34 13.32 23 14 C21.35 14 19.7 14 18 14 C17.67 11.36 17.34 8.72 17 6 C16.01 5.67 15.02 5.34 14 5 C14 7.97 14 10.94 14 14 C12.35 14 10.7 14 9 14 C8.67 11.36 8.34 8.72 8 6 C7.01 5.67 6.02 5.34 5 5 C5 7.97 5 10.94 5 14 C3.02 14 1.04 14 -1 14 C-0.67 9.38 -0.34 4.76 0 0 Z M29 4 C28.67 4.66 28.34 5.32 28 6 C29.32 5.67 30.64 5.34 32 5 C31.01 4.67 30.02 4.34 29 4 Z M28 9 C32 10 32 10 32 10 Z " fill="#34343D" transform="translate(177,211)"/>
<path d="M0 0 C0 4.62 0 9.24 0 14 C-9.08423115 15.57460007 -9.08423115 15.57460007 -13.1875 13 C-15 10 -15 10 -15 6.375 C-12.58225512 -1.78488896 -7.53443938 -0.26592139 0 0 Z M-9 5 C-9.33 5.99 -9.66 6.98 -10 8 C-9.67 8.66 -9.34 9.32 -9 10 C-7.68 9.67 -6.36 9.34 -5 9 C-5.33 7.68 -5.66 6.36 -6 5 C-6.99 5 -7.98 5 -9 5 Z " fill="#34333D" transform="translate(160,211)"/>
<path d="M0 0 C1.65 0 3.3 0 5 0 C5.33 2.97 5.66 5.94 6 9 C6.99 9.33 7.98 9.66 9 10 C9 6.7 9 3.4 9 0 C10.65 0 12.3 0 14 0 C14 4.62 14 9.24 14 14 C12.5975 14.20625 11.195 14.4125 9.75 14.625 C8.96109375 14.74101562 8.1721875 14.85703125 7.359375 14.9765625 C4.6393221 15.00358289 3.26514161 14.47334432 1 13 C-0.32229189 10.35541621 -0.09677194 8.32238699 -0.0625 5.375 C-0.05347656 4.37210938 -0.04445312 3.36921875 -0.03515625 2.3359375 C-0.02355469 1.56507813 -0.01195312 0.79421875 0 0 Z " fill="#35343F" transform="translate(161,211)"/>
<path d="M0 0 C-0.33 1.32 -0.66 2.64 -1 4 C-1.33 3.01 -1.66 2.02 -2 1 C-3.423125 1.5259375 -3.423125 1.5259375 -4.875 2.0625 C-8 3 -8 3 -10 2 C-10.12375 2.804375 -10.2475 3.60875 -10.375 4.4375 C-10.684375 5.7059375 -10.684375 5.7059375 -11 7 C-13.76452033 8.38226016 -16.0461363 8.09525387 -19.125 8.0625 C-20.22070312 8.05347656 -21.31640625 8.04445312 -22.4453125 8.03515625 C-23.70988281 8.01775391 -23.70988281 8.01775391 -25 8 C-25 7.34 -25 6.68 -25 6 C-25.99 6 -26.98 6 -28 6 C-27.125 1.125 -27.125 1.125 -26 0 C-23.13970659 -0.26787347 -20.30429686 -0.47065148 -17.4375 -0.625 C-16.65052734 -0.6765625 -15.86355469 -0.728125 -15.05273438 -0.78125 C-9.88371885 -1.07102169 -5.11802497 -0.78558459 0 0 Z " fill="#18C997" transform="translate(386,221)"/>
<path d="M0 0 C2.97 0 5.94 0 9 0 C9 1.65 9 3.3 9 5 C8.01 5.33 7.02 5.66 6 6 C5.67 8.64 5.34 11.28 5 14 C3.35 14 1.7 14 0 14 C0 9.38 0 4.76 0 0 Z " fill="#35343C" transform="translate(254,211)"/>
<path d="M0 0 C-0.33 1.32 -0.66 2.64 -1 4 C-1.33 3.01 -1.66 2.02 -2 1 C-3.423125 1.5259375 -3.423125 1.5259375 -4.875 2.0625 C-8 3 -8 3 -10 2 C-10.33 3.65 -10.66 5.3 -11 7 C-11.99 7.33 -12.98 7.66 -14 8 C-14 7.01 -14 6.02 -14 5 C-15.32 5.33 -16.64 5.66 -18 6 C-17.67 4.02 -17.34 2.04 -17 0 C-11.06390334 -0.89316269 -5.93024803 -0.97040422 0 0 Z " fill="#19C999" transform="translate(386,221)"/>
<path d="M0 0 C6.93 0 13.86 0 21 0 C21.33 1.32 21.66 2.64 22 4 C21.34 4 20.68 4 20 4 C20 3.34 20 2.68 20 2 C13.4 2 6.8 2 0 2 C0 1.34 0 0.68 0 0 Z " fill="#38B998" transform="translate(378,207)"/>
<path d="M0 0 C0.33 0 0.66 0 1 0 C1.09097407 5.88299016 1.11666585 11.7540112 0.6875 17.625 C0.60048828 18.81996094 0.60048828 18.81996094 0.51171875 20.0390625 C0 22 0 22 -3 24 C-6.1875 23.625 -6.1875 23.625 -9 23 C-9 22.67 -9 22.34 -9 22 C-6.69 21.34 -4.38 20.68 -2 20 C-1.93941406 18.72382813 -1.87882812 17.44765625 -1.81640625 16.1328125 C-1.73200432 14.46352984 -1.64735614 12.79425963 -1.5625 11.125 C-1.52318359 10.28324219 -1.48386719 9.44148437 -1.44335938 8.57421875 C-1.40146484 7.76855469 -1.35957031 6.96289062 -1.31640625 6.1328125 C-1.27974854 5.38918457 -1.24309082 4.64555664 -1.20532227 3.87939453 C-1 2 -1 2 0 0 Z " fill="#37BA96" transform="translate(384,225)"/>
<path d="M0 0 C0.33 0 0.66 0 1 0 C1 2.31 1 4.62 1 7 C0.01 6.67 -0.98 6.34 -2 6 C-2.33 6.66 -2.66 7.32 -3 8 C-3.33 7.34 -3.66 6.68 -4 6 C-5.65 6 -7.3 6 -9 6 C-9 5.01 -9 4.02 -9 3 C-8.01 3 -7.02 3 -6 3 C-3.39719432 2.67958603 -3.39719432 2.67958603 -1 2 C-0.67 1.34 -0.34 0.68 0 0 Z " fill="#2E2D36" transform="translate(213,215)"/>
<path d="M0 0 C0.33 0 0.66 0 1 0 C1.33 2.64 1.66 5.28 2 8 C2.99 7.34 3.98 6.68 5 6 C5.33 7.32 5.66 8.64 6 10 C4.125 11.0625 4.125 11.0625 2 12 C1.34 11.67 0.68 11.34 0 11 C0 7.37 0 3.74 0 0 Z " fill="#303039" transform="translate(161,211)"/>
<path d="M0 0 C0.66 0.33 1.32 0.66 2 1 C1.67 2.65 1.34 4.3 1 6 C1.66 6 2.32 6 3 6 C3 6.66 3 7.32 3 8 C2.34 8 1.68 8 1 8 C1.33 8.99 1.66 9.98 2 11 C1.01 12.485 1.01 12.485 0 14 C-1.53508028 11.56661348 -2.03088304 10.32875493 -1.7578125 7.421875 C-1.54898438 6.54015625 -1.34015625 5.6584375 -1.125 4.75 C-0.92132813 3.85796875 -0.71765625 2.9659375 -0.5078125 2.046875 C-0.34023437 1.37140625 -0.17265625 0.6959375 0 0 Z " fill="#2D2C34" transform="translate(230,208)"/>
<path d="M0 0 C0.33 0 0.66 0 1 0 C1 2.97 1 5.94 1 9 C-0.98 9 -2.96 9 -5 9 C-4.67 8.34 -4.34 7.68 -4 7 C-3.34 7 -2.68 7 -2 7 C-1.855625 6.401875 -1.71125 5.80375 -1.5625 5.1875 C-1.1127561 3.43849596 -0.57107659 1.71322977 0 0 Z " fill="#2D2C36" transform="translate(219,216)"/>
<path d="M0 0 C2.64 0.33 5.28 0.66 8 1 C7.67 2.32 7.34 3.64 7 5 C6.67 4.01 6.34 3.02 6 2 C4.02 2.66 2.04 3.32 0 4 C0 2.68 0 1.36 0 0 Z " fill="#1FDAC0" transform="translate(378,220)"/>
<path d="M0 0 C1.2065625 0.0309375 1.2065625 0.0309375 2.4375 0.0625 C2.1075 0.7225 1.7775 1.3825 1.4375 2.0625 C-1.57740557 3.06746852 -3.60431692 3.16585303 -6.75 3.125 C-8.10158203 3.11146484 -8.10158203 3.11146484 -9.48046875 3.09765625 C-10.16753906 3.08605469 -10.85460937 3.07445312 -11.5625 3.0625 C-11.5625 2.7325 -11.5625 2.4025 -11.5625 2.0625 C-9.51171875 1.83463542 -7.4609375 1.60677083 -5.41015625 1.37890625 C-2.80458624 0.93270927 -2.89290947 0.07055877 0 0 Z " fill="#2B3136" transform="translate(250.5625,263.9375)"/>
<path d="M0 0 C1.32 0.33 2.64 0.66 4 1 C4 1.99 4 2.98 4 4 C3.01 3.67 2.02 3.34 1 3 C1 3.66 1 4.32 1 5 C-0.32 4.67 -1.64 4.34 -3 4 C-2.505 3.525625 -2.01 3.05125 -1.5 2.5625 C0.11542197 1.24076302 0.11542197 1.24076302 0 0 Z " fill="#2D2D36" transform="translate(194,211)"/>
</svg>
